<svg id="Ebene_1" data-name="Ebene 1" xmlns="http://www.w3.org/2000/svg" viewBox="0 0 1024 1024"><defs><style>.cls-1{fill:#fe470e;}.cls-2{fill:#fd2d11;}.cls-3{fill:#911b54;}.cls-4{fill:#ff9e0f;}.cls-5{fill:#0a89fc;}.cls-6{fill:#287901;}.cls-7{fill:#4640d9;}.cls-8{fill:#7529b2;}.cls-9{fill:#d837d1;}.cls-10{fill:#f360e3;}</style></defs><title>Zeichenfläche 1</title><g id="layer1"><g id="g1530"><path id="path872" class="cls-1" d="M261.22,323.48C295,311.14,321.33,358.86,333.83,371c25.85,33.17,64.74,78.13,88.69,110.08C476,548.84,522.39,596.68,577.23,658.75c6.87,10.39,38.69,30.4,16.82,30.83-72.86-27.1-142.64-58.79-204.16-96.84-54.88-28-106.6-79.09-133.4-130-14.53-29.18-17.11-39.06-18.34-70.16C239.59,370,240.61,336,261.22,323.48Z"/><path id="path870" class="cls-2" d="M228,594.71c8.53-23.08,16.21-19.13,40-13.94,51.59,16,116.47,43.05,178.73,67.42,55.53,22.53,38.07,15.16,130.06,49,6.9,3.88,7.75,6-6.64,11.94-22.21,9.23-37.32,11.49-96.09,14.37-85.25,4.26-130.44-6.68-198.69-37.7-18.83-12.58-22.91-19.29-33.57-36.26-8.15-14.63-12.93-17.77-13.84-54.84Z"/><path id="path868" class="cls-3" d="M261.65,759.17c10.58-11,90.41-10.42,209.86-13.48,46.84-1.2,93.59-.35,96.19-.9s5.41,3.32,6.23,5.81-9.13,9.39-22.09,15.33c-52.53,24.09-99,49.76-118.67,60.08-21.74,14.2-66,18.27-95.79,14.25-28.07-3.78-61.14-21.07-70.77-41.47C258.72,782.08,251.79,772.48,261.65,759.17Z"/><path id="path866" class="cls-4" d="M370.63,177.93C375,149,388.2,114.21,400.7,103c27.12-28.4,49.16-5.15,53.54,14.88,10.14,39.72,24.11,90.58,28.85,113.45,16.33,53.14,36.54,114.86,50.18,166.35,25.5,98,31.54,119.18,52.68,184.94,9.49,29.52,16.1,57,18.66,63,3.56,11.42,8.06,18.17,5,25.69-5.7,5.68-11,1.68-27-20.22-7.25-10-18.31-23.46-24.58-30C525,583.85,504.21,547.76,472.44,511c-22.77-32.19-54.24-74.41-67.6-107.91C374,333.41,358.72,248.26,370.63,177.93Z"/><path id="path864" class="cls-5" d="M398.67,908.56c7.19-5,32.19-24.24,55.56-42.86s50-41.76,61.9-48a402.46,402.46,0,0,0,44-35.82c25.3-24.15,42.86-25.86,42.83-12.51,0,10-25.79,89.39-34.79,107.2-16.27,32.18-50.43,52.23-86.83,70.62-19.89,10.92-60.93,5.93-76.26-4.87-17.92-8.87-22.58-22.62-6.38-33.81Z"/><path id="path862" class="cls-6" d="M514.49,135.26c5.33-14.72,6-16,27.48-56.88a174.13,174.13,0,0,1,49.38-58.22c23.43-10.2,25.65-13.11,62.4-9,17.79,8.79,10.4,60.87,8.71,83.1-4.15,52.42-6.94,128.93-13.59,371.46-2.93,106.94-7.21,196.31-9.51,198.6-7.45,7.43-16.59-5.51-26.09-36.94-20.61-68.26-28.21-96.66-41.46-155-14.89-65.6-23-100.34-44.83-192-15.1-63.41-20.29-123.65-12.49-145.15Z"/><path id="path860" class="cls-7" d="M578.56,985.84c2.23-38.05,23.5-181.28,28.88-194.46,2-5,4-16.27,5.35-20.58,4.06-12.65,15.9-.93,32.78,27,22.62,37.41,34.21,89.91,34.16,112.37-.09,37.92-15.86,72-62.41,95.51C585.68,1021.63,576.73,1017.05,578.56,985.84Z"/><path id="path858" class="cls-8" d="M646.12,753c15.65,0,101.1,54.19,121.88,77.25,12.3,13.66,15.37,71.87,4.65,88.17-4.08,6.19-9.33,11.25-11.67,11.25-6.4,0-36.17-27.38-36.28-33.34-18.82-29.06-33.34-56.75-57-82.21-10.6-11.17-28.58-45.46-28.56-54.48A6.84,6.84,0,0,1,646.12,753Z"/><path id="path856" class="cls-9" d="M660.83,720.33c21.74-3.25,29-1.81,44.85-.13,15.94,2.38,56,3.09,78,31.22,13.52,15.46,16.39,23.29,6.46,34-3.58,3.87-64.92-19.9-88-30.39-25.43-10.82-39.75-14.67-47-29.24.34-3,.36-4.32,5.73-5.46Z"/><path id="path902-0" class="cls-10" d="M708.77,670.39c23.42-5.39,31.84-4.22,48.93.12,22,5.6,20.71,14.94,17.47,26.76-12.1,13.09-34.5,9.25-52.36,9.75-38-1.19-63.77.87-52.31-14.72a71.11,71.11,0,0,1,38.27-21.92Z"/></g></g></svg>